<svg version="1" xmlns="http://www.w3.org/2000/svg" width="346.667" height="346.667" viewBox="0 0 260.000000 260.000000"><path d="M19 29.8c0 2.9 0 2.9 7.6 3.5 13 1.1 17.9 5.6 20.4 18.6.6 3.4 1 38.8 1 95.7V238h29V134.5l42.8 43.2c25.9 26.1 45.3 44.9 49.3 47.7 9.1 6.3 22.1 12.3 30.4 14.1 8.2 1.7 19.7 1.8 27.5.2 5.1-1.1 5.5-1.4 5.8-4.2.3-2.9 0-3.1-7.7-5.8-8.7-3.1-20.6-10.6-32.1-20.3-8.2-6.9-87-86.7-87-88.1 0-.5 17-18 37.8-38.9 31.6-31.9 38.7-38.6 43.8-41.2 6.6-3.4 16.7-6.2 22.7-6.2 3.7 0 3.7 0 3.7-4.1v-4.2l-13.2.5c-10.6.4-14.5 1-19.3 2.8-12.4 4.7-12.9 5.2-82.2 76.1l-22.1 22.6-.5-40.1c-.3-24.9-1-41.9-1.7-44.8-1.7-6.8-4.8-11-10.5-13.8-4.8-2.4-6-2.5-25.2-2.8L19 26.8v3z"/></svg>